<?xml version="1.0" encoding="UTF-8" standalone="no"?>
<!-- Created with Inkscape (http://www.inkscape.org/) -->

<svg
   width="112.10831mm"
   height="95.287773mm"
   viewBox="0 0 112.10831 95.287773"
   version="1.1"
   id="svg1"
   xml:space="preserve"
   inkscape:version="1.3.2 (091e20e, 2023-11-25, custom)"
   sodipodi:docname="spider.svg"
   xmlns:inkscape="http://www.inkscape.org/namespaces/inkscape"
   xmlns:sodipodi="http://sodipodi.sourceforge.net/DTD/sodipodi-0.dtd"
   xmlns:xlink="http://www.w3.org/1999/xlink"
   xmlns="http://www.w3.org/2000/svg"
   xmlns:svg="http://www.w3.org/2000/svg"><sodipodi:namedview
     id="namedview1"
     pagecolor="#ffffff"
     bordercolor="#eeeeee"
     borderopacity="1"
     inkscape:showpageshadow="0"
     inkscape:pageopacity="0"
     inkscape:pagecheckerboard="0"
     inkscape:deskcolor="#505050"
     inkscape:document-units="mm"
     inkscape:zoom="1.0079677"
     inkscape:cx="309.53373"
     inkscape:cy="220.24515"
     inkscape:window-width="1115"
     inkscape:window-height="1032"
     inkscape:window-x="848"
     inkscape:window-y="30"
     inkscape:window-maximized="0"
     inkscape:current-layer="layer1" /><defs
     id="defs1"><linearGradient
       id="linearGradient98"
       inkscape:collect="always"><stop
         style="stop-color:#8564ff;stop-opacity:1;"
         offset="0"
         id="stop98" /><stop
         style="stop-color:#8564e2;stop-opacity:0.76249999;"
         offset="1"
         id="stop99" /></linearGradient><linearGradient
       id="linearGradient95"
       inkscape:collect="always"><stop
         style="stop-color:#282a36;stop-opacity:0.89999998;"
         offset="0"
         id="stop96" /><stop
         style="stop-color:#282a36;stop-opacity:1;"
         offset="1"
         id="stop95" /></linearGradient><linearGradient
       id="linearGradient93"
       inkscape:collect="always"><stop
         style="stop-color:#282a36;stop-opacity:1;"
         offset="0"
         id="stop93" /><stop
         style="stop-color:#282a36;stop-opacity:0.89999998;"
         offset="1"
         id="stop94" /></linearGradient><linearGradient
       id="linearGradient91"
       inkscape:collect="always"><stop
         style="stop-color:#282a36;stop-opacity:0.80000001;"
         offset="0"
         id="stop92" /><stop
         style="stop-color:#282a36;stop-opacity:1;"
         offset="1"
         id="stop91" /></linearGradient><linearGradient
       id="linearGradient89"
       inkscape:collect="always"><stop
         style="stop-color:#282a36;stop-opacity:1;"
         offset="0"
         id="stop89" /><stop
         style="stop-color:#282a36;stop-opacity:0.80000001;"
         offset="1"
         id="stop90" /></linearGradient><linearGradient
       id="linearGradient86"
       inkscape:collect="always"><stop
         style="stop-color:#282a36;stop-opacity:1;"
         offset="0"
         id="stop86" /><stop
         style="stop-color:#282a36;stop-opacity:0.84375;"
         offset="1"
         id="stop87" /></linearGradient><linearGradient
       id="swatch83"
       inkscape:swatch="solid"><stop
         style="stop-color:#282a36;stop-opacity:1;"
         offset="0"
         id="stop84" /></linearGradient><linearGradient
       id="linearGradient66"
       inkscape:collect="always"><stop
         style="stop-color:#282a36;stop-opacity:1;"
         offset="0"
         id="stop66" /><stop
         style="stop-color:#282a36;stop-opacity:1;"
         offset="1"
         id="stop67" /></linearGradient><linearGradient
       id="swatch42"
       inkscape:swatch="solid"><stop
         style="stop-color:#000000;stop-opacity:1;"
         offset="0"
         id="stop43" /></linearGradient><linearGradient
       inkscape:collect="always"
       xlink:href="#linearGradient66"
       id="linearGradient67"
       x1="-98.393478"
       y1="99.070435"
       x2="-62.100086"
       y2="99.070435"
       gradientUnits="userSpaceOnUse" /><linearGradient
       inkscape:collect="always"
       xlink:href="#linearGradient86"
       id="linearGradient87"
       x1="-74.619217"
       y1="99.188004"
       x2="-24.831041"
       y2="99.188004"
       gradientUnits="userSpaceOnUse" /><linearGradient
       inkscape:collect="always"
       xlink:href="#linearGradient89"
       id="linearGradient90"
       x1="114.44377"
       y1="90.086761"
       x2="154.60872"
       y2="90.086761"
       gradientUnits="userSpaceOnUse" /><linearGradient
       inkscape:collect="always"
       xlink:href="#linearGradient91"
       id="linearGradient92"
       x1="43.670486"
       y1="89.954468"
       x2="83.835449"
       y2="89.954468"
       gradientUnits="userSpaceOnUse" /><linearGradient
       inkscape:collect="always"
       xlink:href="#linearGradient93"
       id="linearGradient94"
       x1="6.7573881"
       y1="1140.1447"
       x2="13.262876"
       y2="1140.1447"
       gradientUnits="userSpaceOnUse" /><linearGradient
       inkscape:collect="always"
       xlink:href="#linearGradient95"
       id="linearGradient96"
       x1="6.3798351"
       y1="1139.8173"
       x2="12.588973"
       y2="1139.8173"
       gradientUnits="userSpaceOnUse" /><linearGradient
       inkscape:collect="always"
       xlink:href="#linearGradient98"
       id="linearGradient99"
       x1="85.728493"
       y1="109.80499"
       x2="112.34531"
       y2="109.80499"
       gradientUnits="userSpaceOnUse" /></defs><g
     inkscape:label="Outline"
     inkscape:groupmode="layer"
     id="g66"
     transform="translate(-43.085527,-24.246042)"><path
       d="m 6.379836,1133.8161 c 0.109725,0.2429 0.21945,0.4859 0.329175,0.7288 0.350409,0.7757 0.556234,1.2506 0.889651,2.1697 0.302328,0.8333 0.364501,2.0116 0.266522,2.8184 -0.085128,0.701 -0.331992,1.3666 -0.680026,2.0352 -0.278849,0.5357 -0.559952,1.3211 -0.583056,1.9585 -0.078883,2.1188 2.5859358,3.1172 3.918665,1.4681 0.32181,-0.3982 0.592143,-0.8974 0.725887,-1.1823 0.150578,-0.3208 0.310413,-0.6987 0.391704,-0.8772 0.06563,-0.144 0.173023,-0.451 0.325046,-0.8866 0.330999,-0.9484 0.499017,-1.5214 0.596366,-2.7091 0.0713,-0.8698 0.01017,-1.947 -0.162923,-2.675 -0.103635,-0.4359 -0.224559,-0.8221 -0.351013,-1.2161 -0.0235,-0.073 -0.047,-0.1464 -0.07051,-0.2196 -0.07647,0.01 -0.152936,0.016 -0.229405,0.024 -1.297875,0.1382 -3.220856,-0.3605 -4.65143,-1.0785 -0.238218,-0.1195 -0.476436,-0.2391 -0.714654,-0.3587"
       style="fill:none;fill-opacity:1;stroke:#ffffff;stroke-width:0.514669;stroke-dasharray:none;stroke-opacity:1;paint-order:stroke fill markers"
       id="path60"
       sodipodi:nodetypes="cscssccccccsccccc"
       transform="matrix(0,-2.2733071,-2.2733071,0,2651.8981,79.082956)"
       inkscape:label="left_leg"
       inkscape:export-filename="path60.png"
       inkscape:export-xdpi="96"
       inkscape:export-ydpi="96" /><path
       d="m 6.7573881,1133.857 c 0.114962,0.2545 0.229924,0.5091 0.344886,0.7636 0.3671335,0.8127 0.5827822,1.3103 0.9321127,2.2733 0.3167577,0.8731 0.3818981,2.1076 0.2792427,2.9529 -0.089191,0.7345 -0.3478374,1.4318 -0.7124826,2.1323 -0.292158,0.5613 -0.5866777,1.3842 -0.6108844,2.052 -0.082648,2.2199 2.7093587,3.266 4.1056965,1.5382 0.33717,-0.4172 0.620406,-0.9402 0.760533,-1.2387 0.157765,-0.3362 0.325229,-0.7321 0.410399,-0.9191 0.06876,-0.1509 0.181282,-0.4725 0.34056,-0.9289 0.346797,-0.9937 0.522835,-1.594 0.62483,-2.8384 0.0747,-0.9113 0.01065,-2.04 -0.170699,-2.8027 -0.108581,-0.4567 -0.235277,-0.8613 -0.367766,-1.2741 -0.02462,-0.076 -0.04924,-0.1534 -0.07387,-0.2301 -0.08012,0.01 -0.160236,0.017 -0.240355,0.025 -1.35982,0.1448 -3.3745821,-0.3777 -4.8734353,-1.13 -0.2495878,-0.1252 -0.4991756,-0.2505 -0.7487634,-0.3758"
       style="fill:none;fill-opacity:1;stroke:#ffffff;stroke-width:0.539233;stroke-dasharray:none;stroke-opacity:1;paint-order:stroke fill markers"
       id="path61"
       sodipodi:nodetypes="cscssccccccsccccc"
       inkscape:label="right_leg"
       transform="matrix(0,-2.1697483,2.1697483,0,-2336.4042,79.455206)" /><path
       id="path62"
       style="fill:none;fill-opacity:1;stroke:#ffffff;stroke-width:1.17;stroke-dasharray:none;stroke-opacity:1;paint-order:stroke fill markers"
       inkscape:label="body"
       d="m -24.831042,99.187744 a 26.541946,26.541946 0 0 0 -26.54205,-26.541532 26.541946,26.541946 0 0 0 -20.793046,10.21333 18.146685,18.146685 0 0 0 -1.420585,-0.623735 c 0.798978,-1.16231 2.202931,-2.711535 3.663859,-4.098458 1.415449,-1.343506 2.879377,-3.221808 3.67006,-5.484419 1.130345,-3.234441 1.302834,-6.315601 0.438733,-9.885702 -0.560365,-2.315118 -1.441093,-4.402609 -2.246374,-5.938139 -0.782914,-1.493002 -2.029331,-3.076509 -3.499528,-4.611604 -1.578537,-1.648357 -2.881444,-2.687856 -4.246769,-3.597197 -1.205498,-0.802806 -2.961079,-1.963871 -5.335075,-2.98018 -2.720959,-1.165154 -5.709066,-1.598329 -7.691004,-1.793172 -1.702061,-0.167071 -3.283161,-0.199667 -4.951119,-0.162781 -1.662525,0.03688 -2.707592,-0.03497 -4.387329,0.22996 -6.056011,0.952085 -5.109561,9.942187 1.011825,9.6113 2.595042,-0.141034 3.605441,-0.04781 5.007963,0.07803 1.803534,0.160561 4.316868,0.342375 6.123657,1.011308 1.49512,0.553502 3.231596,1.380543 4.997111,2.683041 2.43182,1.79438 3.938751,3.726205 4.884973,6.745841 0.542279,1.730372 0.702479,3.136486 0.497644,4.537708 -0.205081,1.402958 -0.689416,3.079008 -1.277441,4.168221 -1.111984,-1.39276 -2.687383,-3.088598 -4.49895,-4.405416 -1.961129,-1.425741 -3.908185,-2.615441 -6.752043,-3.336231 -2.679718,-0.679347 -5.553925,-0.916959 -8.011914,-0.617533 -2.791884,0.340216 -5.541696,1.498505 -7.697726,2.618962 -1.25988,0.654545 -2.70967,1.659858 -4.07158,2.773474 a 9.0410538,9.0410538 0 0 0 -1.95027,-0.236678 9.0410538,9.0410538 0 0 0 -9.04079,9.041308 9.0410538,9.0410538 0 0 0 5.96656,8.478036 l 0.0341,23.942724 a 9.0410538,9.0410538 0 0 0 -5.98465,8.48424 9.0410538,9.0410538 0 0 0 9.04131,9.04131 9.0410538,9.0410538 0 0 0 1.65571,-0.15503 c 1.40313,1.16129 2.91266,2.2135 4.21731,2.89129 2.15602,1.12046 4.905837,2.27875 7.697724,2.61897 2.457989,0.29941 5.332195,0.0618 8.011914,-0.61754 2.843859,-0.72079 4.790913,-1.91049 6.752043,-3.33623 1.811566,-1.31682 3.386965,-3.01265 4.49895,-4.40541 0.588025,1.08921 1.072359,2.76474 1.277442,4.1677 0.204834,1.40122 0.04463,2.80734 -0.497644,4.53771 -0.946222,3.01963 -2.453155,4.95198 -4.884974,6.74636 -1.765516,1.30249 -3.50199,2.12902 -4.997111,2.68252 -1.806788,0.66893 -4.320123,0.85126 -6.123657,1.01182 -1.402521,0.1258 -2.412922,0.21906 -5.007963,0.078 -6.121394,-0.33089 -7.067844,8.6587 -1.011824,9.61078 1.679738,0.26491 2.724807,0.19357 4.387329,0.23047 1.667957,0.0369 3.249056,0.004 4.951119,-0.16278 1.981937,-0.19484 4.970044,-0.62801 7.691003,-1.79317 2.373998,-1.01631 4.129577,-2.17737 5.335075,-2.98018 1.365326,-0.90934 2.668233,-1.94884 4.246769,-3.59719 1.470199,-1.53509 2.716614,-3.11861 3.499528,-4.61161 0.805282,-1.53553 1.686009,-3.62302 2.246375,-5.93814 0.864101,-3.57009 0.691611,-6.65125 -0.438733,-9.8857 -0.790684,-2.26261 -2.255128,-4.14144 -3.670577,-5.48494 -1.475586,-1.40084 -2.895922,-2.96879 -3.690214,-4.13463 a 18.146685,18.146685 0 0 0 1.457275,-0.63252 26.541946,26.541946 0 0 0 20.915519,10.35544 26.541946,26.541946 0 0 0 26.54205,-26.542047 z m -51.143649,-7.033679 a 3.0997915,3.0997915 0 0 1 -3.099552,3.100069 3.0997915,3.0997915 0 0 1 -3.100069,-3.100069 3.0997915,3.0997915 0 0 1 3.100069,-3.099552 3.0997915,3.0997915 0 0 1 3.099552,3.099552 z m -0.0279,14.003275 a 3.0997915,3.0997915 0 0 1 -3.099552,3.09956 3.0997915,3.0997915 0 0 1 -3.099553,-3.09956 3.0997915,3.0997915 0 0 1 3.099553,-3.10006 3.0997915,3.0997915 0 0 1 3.099552,3.10006 z m -7.953003,-24.804166 a 18.146685,18.146685 0 0 0 -14.437878,17.717265 18.146685,18.146685 0 0 0 14.341243,17.738451 c -0.20331,0.79436 -0.654491,1.69906 -1.221631,2.60501 -0.768625,1.22742 -2.382022,2.46464 -3.432865,3.02617 -0.61904,0.33089 -1.618087,0.70476 -2.903699,0.99529 -1.627127,0.37255 -2.834051,0.26688 -4.212146,0 -1.602782,-0.31039 -3.56308,-1.05438 -5.19349,-2.22674 a 9.0410538,9.0410538 0 0 0 0.16537,-1.71617 9.0410538,9.0410538 0 0 0 -5.77691,-8.40724 l -0.0341,-24.063132 a 9.0410538,9.0410538 0 0 0 5.795,-8.434627 9.0410538,9.0410538 0 0 0 -0.12609,-1.441772 c 1.650939,-1.217435 3.664553,-1.984981 5.302522,-2.302185 1.378094,-0.266879 2.585018,-0.372546 4.212146,0 1.285612,0.290528 2.284659,0.664918 2.903699,0.995805 1.050842,0.561529 2.664239,1.798747 3.432865,3.026171 0.539876,0.862388 0.969504,1.721431 1.185974,2.487704 z"
       transform="rotate(-90)" /></g><g
     inkscape:label="Spider"
     inkscape:groupmode="layer"
     id="layer1"
     transform="translate(-43.085527,-24.246042)"><path
       d="m 6.379836,1133.8161 c 0.109725,0.2429 0.21945,0.4859 0.329175,0.7288 0.350409,0.7757 0.556234,1.2506 0.889651,2.1697 0.302328,0.8333 0.364501,2.0116 0.266522,2.8184 -0.085128,0.701 -0.331992,1.3666 -0.680026,2.0352 -0.278849,0.5357 -0.559952,1.3211 -0.583056,1.9585 -0.078883,2.1188 2.5859358,3.1172 3.918665,1.4681 0.32181,-0.3982 0.592143,-0.8974 0.725887,-1.1823 0.150578,-0.3208 0.310413,-0.6987 0.391704,-0.8772 0.06563,-0.144 0.173023,-0.451 0.325046,-0.8866 0.330999,-0.9484 0.499017,-1.5214 0.596366,-2.7091 0.0713,-0.8698 0.01017,-1.947 -0.162923,-2.675 -0.103635,-0.4359 -0.224559,-0.8221 -0.351013,-1.2161 -0.0235,-0.073 -0.047,-0.1464 -0.07051,-0.2196 -0.07647,0.01 -0.152936,0.016 -0.229405,0.024 -1.297875,0.1382 -3.220856,-0.3605 -4.65143,-1.0785 -0.238218,-0.1195 -0.476436,-0.2391 -0.714654,-0.3587"
       style="fill:url(#linearGradient96);fill-opacity:1;stroke:none;stroke-width:0.11877;stroke-dasharray:none;stroke-opacity:1"
       id="path6-7"
       sodipodi:nodetypes="cscssccccccsccccc"
       transform="matrix(0,-2.2733071,-2.2733071,0,2651.8981,79.082956)"
       inkscape:label="left_leg" /><path
       id="path35"
       style="fill:url(#linearGradient67);fill-opacity:1;stroke:none;stroke-width:0.27;stroke-dasharray:none;stroke-opacity:0.919255"
       inkscape:label="head"
       d="m -62.100085,99.070439 a 18.146685,18.146685 0 0 0 -18.146696,-18.146696 18.146685,18.146685 0 0 0 -18.146696,18.146696 18.146685,18.146685 0 0 0 18.146696,18.146691 18.146685,18.146685 0 0 0 18.146696,-18.146691 z m -13.874606,-6.916374 a 3.0997915,3.0997915 0 0 1 -3.099552,3.100069 3.0997915,3.0997915 0 0 1 -3.100069,-3.100069 3.0997915,3.0997915 0 0 1 3.100069,-3.099552 3.0997915,3.0997915 0 0 1 3.099552,3.099552 z m -0.0279,14.003275 a 3.0997915,3.0997915 0 0 1 -3.099552,3.09956 3.0997915,3.0997915 0 0 1 -3.099553,-3.09956 3.0997915,3.0997915 0 0 1 3.099553,-3.10006 3.0997915,3.0997915 0 0 1 3.099552,3.10006 z"
       transform="rotate(-90)" /><path
       id="path35-6"
       style="fill:url(#linearGradient87);fill-opacity:1;stroke:none;stroke-width:0.27;stroke-dasharray:none;stroke-opacity:1"
       inkscape:label="body"
       d="M -24.831042,99.187744 A 26.541946,26.541946 0 0 0 -51.373092,72.646212 26.541946,26.541946 0 0 0 -74.619218,86.51875 h 2.123385 v 25.4 h -2.089795 a 26.541946,26.541946 0 0 0 23.212536,13.81104 26.541946,26.541946 0 0 0 26.54205,-26.542046 z"
       transform="rotate(-90)" /><path
       d="m 78.137581,69.923122 c -1.343508,-1.41545 -3.222293,-2.879625 -5.484907,-3.670309 -3.234444,-1.130346 -6.315486,-1.302906 -9.88559,-0.438804 -2.315121,0.560366 -4.402636,1.441386 -5.938167,2.246668 -1.493004,0.782915 -3.076486,2.028878 -4.611583,3.499077 -1.648358,1.578538 -2.687884,2.881873 -3.597226,4.2472 -0.802807,1.205499 -1.963839,2.960824 -2.980149,5.334823 -1.165155,2.720962 -1.598237,5.708944 -1.79308,7.690884 -0.167071,1.702063 -0.199617,3.28356 -0.162731,4.951519 0.03688,1.662527 -0.03472,2.707506 0.23021,4.387244 0.952086,6.056016 9.941787,5.109186 9.6109,-1.012209 -0.141034,-2.595045 -0.04773,-3.605108 0.07811,-5.007631 0.160561,-1.803536 0.342603,-4.317107 1.011537,-6.123898 0.553502,-1.495121 1.380177,-3.231528 2.682676,-4.997045 1.794382,-2.431822 3.726543,-3.938796 6.746182,-4.885019 1.730374,-0.542279 3.136588,-0.702404 4.537811,-0.497569 1.40296,0.205082 3.078873,0.68932 4.168087,1.277346 -1.392761,1.111985 -3.088637,2.687272 -4.405457,4.498841 -1.425742,1.961131 -2.615632,3.908183 -3.336422,6.752044 -0.679348,2.679721 -0.916719,5.554288 -0.617293,8.012279 0.340216,2.791887 1.498428,5.541657 2.618886,7.697687 0.71797,1.38197 1.850578,2.99755 3.094061,4.46889 0.05424,0.0589 0.117166,0.13315 0.180089,0.20738 1.36846,1.606 2.355045,2.59017 3.187143,3.27197 0.932124,0.76383 2.139372,1.84121 3.891444,2.48514 4.957658,1.82219 8.781405,-4.54403 4.844831,-8.06465 -1.800023,-1.60979 -3.285867,-2.94943 -4.824652,-4.96083 -0.08245,-0.10549 -0.162732,-0.21099 -0.234116,-0.29774 -1.218965,-1.651605 -1.987056,-3.667095 -2.30449,-5.306247 -0.266879,-1.378096 -0.372546,-2.585053 0,-4.212182 0.290529,-1.285613 0.664594,-2.284745 0.995481,-2.903785 0.56153,-1.050844 1.798938,-2.663867 3.026364,-3.432494 0.939502,-0.588152 1.880521,-1.058232 2.695479,-1.249348 -0.333707,-2.672487 -0.520957,-3.093436 -0.263625,-5.548976 0.257333,-2.455537 1.124798,-4.620321 1.124798,-4.620321 -1.177306,-0.771264 -2.826965,-2.264519 -4.284602,-3.799935 z"
       style="fill:url(#linearGradient92);fill-opacity:1;stroke:none;stroke-width:0.269999;stroke-dasharray:none"
       id="path25"
       sodipodi:nodetypes="ccsccccccccccccsccccccccccccsccccscc"
       inkscape:label="left_arm" /><path
       d="m 120.14163,70.055414 c 1.3435,-1.415451 3.22229,-2.879625 5.4849,-3.67031 3.23445,-1.130345 6.31549,-1.302905 9.88559,-0.438803 2.31512,0.560366 4.40264,1.441385 5.93817,2.246668 1.493,0.782915 3.07649,2.028877 4.61158,3.499077 1.64836,1.578538 2.68789,2.881873 3.59723,4.2472 0.80281,1.205499 1.96384,2.960823 2.98015,5.334823 1.16516,2.720962 1.59824,5.708944 1.79308,7.690883 0.16707,1.702064 0.19962,3.283561 0.16273,4.95152 -0.0369,1.662523 0.0347,2.707503 -0.23021,4.387243 -0.95208,6.056025 -9.94179,5.109195 -9.6109,-1.01221 0.14103,-2.595043 0.0477,-3.605107 -0.0781,-5.00763 -0.16056,-1.803536 -0.34261,-4.317107 -1.01154,-6.123897 -0.5535,-1.495122 -1.38018,-3.231528 -2.68268,-4.997046 -1.79438,-2.431821 -3.72654,-3.938796 -6.74618,-4.885019 -1.73037,-0.542278 -3.13659,-0.702404 -4.53781,-0.497569 -1.40296,0.205083 -3.07887,0.689321 -4.16809,1.277346 1.39277,1.111986 3.08864,2.687273 4.40546,4.498841 1.42574,1.961132 2.61563,3.908183 3.33642,6.752044 0.67935,2.679722 0.91672,5.554289 0.6173,8.01228 -0.34022,2.79189 -1.49843,5.541665 -2.61889,7.697685 -0.71797,1.38198 -1.85058,2.99756 -3.09406,4.46889 -0.0542,0.0589 -0.11717,0.13316 -0.18009,0.20739 -1.36846,1.60599 -2.35504,2.59016 -3.18714,3.27196 -0.93213,0.76383 -2.13937,1.84122 -3.89145,2.48515 -4.95764,1.82219 -8.78139,-4.54403 -4.84482,-8.06466 1.80002,-1.60978 3.28586,-2.94942 4.82465,-4.96082 0.0825,-0.10549 0.16273,-0.211 0.23411,-0.29774 1.21897,-1.651615 1.98706,-3.667105 2.30449,-5.306255 0.26688,-1.378096 0.37255,-2.585053 0,-4.212182 -0.29053,-1.285613 -0.66459,-2.284745 -0.99548,-2.903785 -0.56153,-1.050844 -1.79894,-2.663868 -3.02636,-3.432494 -0.93951,-0.588152 -1.88053,-1.058232 -2.69547,-1.249348 0.3337,-2.672487 0.52095,-3.093436 0.26362,-5.548976 -0.25733,-2.455537 -1.1248,-4.620321 -1.1248,-4.620321 1.17731,-0.771264 2.82696,-2.264519 4.2846,-3.799935 z"
       style="fill:url(#linearGradient90);fill-opacity:1;stroke:none;stroke-width:0.269999;stroke-dasharray:none"
       id="path49"
       sodipodi:nodetypes="ccsccccccccccccsccccccccccccsccccscc"
       inkscape:label="right_arm" /><path
       d="m 6.7573881,1133.857 c 0.114962,0.2545 0.229924,0.5091 0.344886,0.7636 0.3671335,0.8127 0.5827822,1.3103 0.9321127,2.2733 0.3167577,0.8731 0.3818981,2.1076 0.2792427,2.9529 -0.089191,0.7345 -0.3478374,1.4318 -0.7124826,2.1323 -0.292158,0.5613 -0.5866777,1.3842 -0.6108844,2.052 -0.082648,2.2199 2.7093587,3.266 4.1056965,1.5382 0.33717,-0.4172 0.620406,-0.9402 0.760533,-1.2387 0.157765,-0.3362 0.325229,-0.7321 0.410399,-0.9191 0.06876,-0.1509 0.181282,-0.4725 0.34056,-0.9289 0.346797,-0.9937 0.522835,-1.594 0.62483,-2.8384 0.0747,-0.9113 0.01065,-2.04 -0.170699,-2.8027 -0.108581,-0.4567 -0.235277,-0.8613 -0.367766,-1.2741 -0.02462,-0.076 -0.04924,-0.1534 -0.07387,-0.2301 -0.08012,0.01 -0.160236,0.017 -0.240355,0.025 -1.35982,0.1448 -3.3745821,-0.3777 -4.8734353,-1.13 -0.2495878,-0.1252 -0.4991756,-0.2505 -0.7487634,-0.3758"
       style="fill:url(#linearGradient94);fill-opacity:1;stroke:none;stroke-width:0.124439;stroke-dasharray:none;stroke-opacity:1"
       id="path6-7-1"
       sodipodi:nodetypes="cscssccccccsccccc"
       inkscape:label="right_leg"
       transform="matrix(0,-2.1697483,2.1697483,0,-2336.4042,79.455206)" /><circle
       style="fill:#8564ff;fill-opacity:1;stroke:none;stroke-width:0.27;stroke-dasharray:none;stroke-opacity:1"
       id="path35-1"
       cx="-109.90799"
       cy="78.587242"
       r="9.0410538"
       transform="rotate(-90)"
       inkscape:label="left_node" /><circle
       style="fill:#8564ff;fill-opacity:1;stroke:none;stroke-width:0.27;stroke-dasharray:none;stroke-opacity:1"
       id="path35-1-5"
       cx="-109.89165"
       cy="119.49268"
       r="9.0410538"
       transform="rotate(-90)"
       inkscape:label="right_node" /><path
       style="fill:url(#linearGradient99);fill-opacity:1;stroke:none;stroke-width:0.28423;stroke-dasharray:none;stroke-opacity:1"
       d="m 85.728493,106.6578 c 0.256616,0.69601 0.628266,1.93638 0.651837,2.93523 0.02707,1.14715 -0.585243,3.39525 -0.585243,3.39525 l 26.489353,-0.0361 c 0,0 -0.66059,-1.39471 -0.58284,-3.35914 0.0778,-1.96443 0.39522,-2.31143 0.64371,-2.97134 z"
       id="path47"
       sodipodi:nodetypes="caccscc"
       inkscape:label="graph_edge" /><path
       style="font-size:66.6667px;white-space:pre;fill:#ffffff;stroke:#ffffff;stroke-width:1.02047"
       d="M 372.40953,204.27453 334.84441,187.5753 v -4.03646 l 37.56512,-16.69923 v 5.85938 l -29.62241,12.85808 29.62241,12.85808 z m 55.01305,-16.69923 -37.56513,16.69923 v -5.85938 l 29.62242,-12.85808 -29.62242,-12.85808 v -5.85938 l 37.56513,16.69923 z"
       id="text48-1"
       inkscape:label="html_tag"
       transform="matrix(0.33633875,0,0,0.33633875,-29.013485,-14.211941)"
       aria-label="&lt;&gt;" /></g></svg>
